REM DIRINDEX 1\2\4\18,1\2\4\19,1\2\5\20,1\2\5\21,1\2\6\22,1\2\6\23,1\2\7\24,1\2\7\25,1\2\8\26,1\2\8\27,1\2\9\28,1\2\9\29,1\2\10\30,1\3\11\31,1\3\11\32,1\3\11\33,1\3\11\34,1\3\11\35,1\3\12\36,1\3\12\37,1\3\12\38,1\3\12\39,1\3\12\40,1\3\13\41,1\3\13\42,1\3\13\43,1\3\13\44,1\3\13\45,1\3\14\46,1\3\14\47,1\3\14\48,1\3\14\49,1\3\15\50,1\3\15\51,1\3\15\52,1\3\15\53,1\3\15\54,1\3\16\55,1\3\16\56,1\3\16\57,1\3\16\58,1\3\16\59,1\3\17\60,1\3\17\61
REM DIRNAME "folder01","folder02","folder03","folder04","folder05","folder06","folder07","folder08","folder09","folder10","folder11","folder12","folder13","folder14","folder15","folder16","folder17","folder18","folder19","folder20","folder21","folder22","folder23","folder24","folder25","folder26","folder27","folder28","folder29","folder30","folder31","folder32","folder33","folder34","folder35","folder36","folder37","folder38","folder39","folder40","folder41","folder42","folder43","folder44","folder45","folder46","folder47","folder48","folder49","folder50","folder51","folder52","folder53","folder54","folder55","folder56","folder57","folder58","folder59","folder60","folder61"
TITLE ""
FILE "TOEIC LR Kinnojyukugo_07.mp3" MP3
  TRACK 01 AUDIO
    TITLE "0:"
    INDEX 01 00:00:00
  TRACK 02 AUDIO
    TITLE "31:cjc160_3459"
    INDEX 01 00:00:12
  TRACK 03 AUDIO
    TITLE "0:"
    INDEX 01 00:01:35
  TRACK 04 AUDIO
    TITLE "32:cjc160_3460"
    INDEX 01 00:01:74
  TRACK 05 AUDIO
    TITLE "0:"
    INDEX 01 00:03:18
  TRACK 06 AUDIO
    TITLE "33:cjc160_3461"
    INDEX 01 00:03:58
  TRACK 07 AUDIO
    TITLE "0:"
    INDEX 01 00:05:43
  TRACK 08 AUDIO
    TITLE "34:cjc160_3462"
    INDEX 01 00:06:05
  TRACK 09 AUDIO
    TITLE "0:"
    INDEX 01 00:08:02
  TRACK 10 AUDIO
    TITLE "35:cjc160_3463"
    INDEX 01 00:08:27
  TRACK 11 AUDIO
    TITLE "0:"
    INDEX 01 00:10:26
  TRACK 12 AUDIO
    TITLE "31:cjc160_3464"
    INDEX 01 00:11:26
  TRACK 13 AUDIO
    TITLE "0:"
    INDEX 01 00:12:47
  TRACK 14 AUDIO
    TITLE "32:cjc160_3465"
    INDEX 01 00:13:11
  TRACK 15 AUDIO
    TITLE "0:"
    INDEX 01 00:14:36
  TRACK 16 AUDIO
    TITLE "33:cjc160_3466"
    INDEX 01 00:15:02
  TRACK 17 AUDIO
    TITLE "0:"
    INDEX 01 00:17:54
  TRACK 18 AUDIO
    TITLE "34:cjc160_3467"
    INDEX 01 00:18:20
  TRACK 19 AUDIO
    TITLE "0:"
    INDEX 01 00:20:48
  TRACK 20 AUDIO
    TITLE "35:cjc160_3468"
    INDEX 01 00:20:72
  TRACK 21 AUDIO
    TITLE "0:"
    INDEX 01 00:23:25
  TRACK 22 AUDIO
    TITLE "31:cjc160_3469"
    INDEX 01 00:24:25
  TRACK 23 AUDIO
    TITLE "0:"
    INDEX 01 00:25:42
  TRACK 24 AUDIO
    TITLE "32:cjc160_3470"
    INDEX 01 00:26:04
  TRACK 25 AUDIO
    TITLE "0:"
    INDEX 01 00:28:44
  TRACK 26 AUDIO
    TITLE "33:cjc160_3471"
    INDEX 01 00:29:08
  TRACK 27 AUDIO
    TITLE "0:"
    INDEX 01 00:33:08
  TRACK 28 AUDIO
    TITLE "34:cjc160_3472"
    INDEX 01 00:33:51
  TRACK 29 AUDIO
    TITLE "0:"
    INDEX 01 00:36:34
  TRACK 30 AUDIO
    TITLE "35:cjc160_3473"
    INDEX 01 00:36:61
  TRACK 31 AUDIO
    TITLE "0:"
    INDEX 01 00:39:44
  TRACK 32 AUDIO
    TITLE "31:cjc160_3474"
    INDEX 01 00:40:45
  TRACK 33 AUDIO
    TITLE "0:"
    INDEX 01 00:41:56
  TRACK 34 AUDIO
    TITLE "32:cjc160_3475"
    INDEX 01 00:42:20
  TRACK 35 AUDIO
    TITLE "0:"
    INDEX 01 00:43:36
  TRACK 36 AUDIO
    TITLE "33:cjc160_3476"
    INDEX 01 00:44:00
  TRACK 37 AUDIO
    TITLE "0:"
    INDEX 01 00:46:08
  TRACK 38 AUDIO
    TITLE "34:cjc160_3477"
    INDEX 01 00:46:50
  TRACK 39 AUDIO
    TITLE "0:"
    INDEX 01 00:48:21
  TRACK 40 AUDIO
    TITLE "35:cjc160_3478"
    INDEX 01 00:48:49
  TRACK 41 AUDIO
    TITLE "0:"
    INDEX 01 00:50:22
  TRACK 42 AUDIO
    TITLE "31:cjc160_3479"
    INDEX 01 00:51:21
  TRACK 43 AUDIO
    TITLE "0:"
    INDEX 01 00:52:36
  TRACK 44 AUDIO
    TITLE "32:cjc160_3480"
    INDEX 01 00:53:01
  TRACK 45 AUDIO
    TITLE "0:"
    INDEX 01 00:54:08
  TRACK 46 AUDIO
    TITLE "33:cjc160_3481"
    INDEX 01 00:54:45
  TRACK 47 AUDIO
    TITLE "0:"
    INDEX 01 00:56:38
  TRACK 48 AUDIO
    TITLE "34:cjc160_3482"
    INDEX 01 00:57:02
  TRACK 49 AUDIO
    TITLE "0:"
    INDEX 01 00:58:74
  TRACK 50 AUDIO
    TITLE "35:cjc160_3483"
    INDEX 01 00:59:25
  TRACK 51 AUDIO
    TITLE "0:"
    INDEX 01 01:01:22
  TRACK 52 AUDIO
    TITLE "31:cjc160_3484"
    INDEX 01 01:02:23
  TRACK 53 AUDIO
    TITLE "0:"
    INDEX 01 01:03:64
  TRACK 54 AUDIO
    TITLE "32:cjc160_3485"
    INDEX 01 01:04:26
  TRACK 55 AUDIO
    TITLE "0:"
    INDEX 01 01:05:37
  TRACK 56 AUDIO
    TITLE "33:cjc160_3486"
    INDEX 01 01:06:03
  TRACK 57 AUDIO
    TITLE "0:"
    INDEX 01 01:08:02
  TRACK 58 AUDIO
    TITLE "34:cjc160_3487"
    INDEX 01 01:08:39
  TRACK 59 AUDIO
    TITLE "0:"
    INDEX 01 01:10:44
  TRACK 60 AUDIO
    TITLE "35:cjc160_3488"
    INDEX 01 01:10:70
  TRACK 61 AUDIO
    TITLE "0:"
    INDEX 01 01:12:74
  TRACK 62 AUDIO
    TITLE "31:cjc160_3489"
    INDEX 01 01:14:01
  TRACK 63 AUDIO
    TITLE "0:"
    INDEX 01 01:15:24
  TRACK 64 AUDIO
    TITLE "32:cjc160_3490"
    INDEX 01 01:15:73
  TRACK 65 AUDIO
    TITLE "0:"
    INDEX 01 01:17:07
  TRACK 66 AUDIO
    TITLE "33:cjc160_3491"
    INDEX 01 01:17:48
  TRACK 67 AUDIO
    TITLE "0:"
    INDEX 01 01:20:21
  TRACK 68 AUDIO
    TITLE "34:cjc160_3492"
    INDEX 01 01:20:60
  TRACK 69 AUDIO
    TITLE "0:"
    INDEX 01 01:23:27
  TRACK 70 AUDIO
    TITLE "35:cjc160_3493"
    INDEX 01 01:23:53
  TRACK 71 AUDIO
    TITLE "0:"
    INDEX 01 01:26:20
  TRACK 72 AUDIO
    TITLE "31:cjc160_3494"
    INDEX 01 01:27:21
  TRACK 73 AUDIO
    TITLE "0:"
    INDEX 01 01:28:38
  TRACK 74 AUDIO
    TITLE "32:cjc160_3495"
    INDEX 01 01:29:02
  TRACK 75 AUDIO
    TITLE "0:"
    INDEX 01 01:30:55
  TRACK 76 AUDIO
    TITLE "33:cjc160_3496"
    INDEX 01 01:31:17
  TRACK 77 AUDIO
    TITLE "0:"
    INDEX 01 01:33:49
  TRACK 78 AUDIO
    TITLE "34:cjc160_3497"
    INDEX 01 01:34:15
  TRACK 79 AUDIO
    TITLE "0:"
    INDEX 01 01:36:22
  TRACK 80 AUDIO
    TITLE "35:cjc160_3498"
    INDEX 01 01:36:48
  TRACK 81 AUDIO
    TITLE "0:"
    INDEX 01 01:38:54
  TRACK 82 AUDIO
    TITLE "31:cjc160_3499"
    INDEX 01 01:39:56
  TRACK 83 AUDIO
    TITLE "0:"
    INDEX 01 01:41:17
  TRACK 84 AUDIO
    TITLE "32:cjc160_3500"
    INDEX 01 01:41:55
  TRACK 85 AUDIO
    TITLE "0:"
    INDEX 01 01:43:12
  TRACK 86 AUDIO
    TITLE "33:cjc160_3501"
    INDEX 01 01:43:48
  TRACK 87 AUDIO
    TITLE "0:"
    INDEX 01 01:46:11
  TRACK 88 AUDIO
    TITLE "34:cjc160_3502"
    INDEX 01 01:46:48
  TRACK 89 AUDIO
    TITLE "0:"
    INDEX 01 01:48:70
  TRACK 90 AUDIO
    TITLE "35:cjc160_3503"
    INDEX 01 01:49:23
  TRACK 91 AUDIO
    TITLE "0:"
    INDEX 01 01:51:45
  TRACK 92 AUDIO
    TITLE "31:cjc160_3504"
    INDEX 01 01:52:49
  TRACK 93 AUDIO
    TITLE "0:"
    INDEX 01 01:54:10
  TRACK 94 AUDIO
    TITLE "32:cjc160_3505"
    INDEX 01 01:54:51
  TRACK 95 AUDIO
    TITLE "0:"
    INDEX 01 01:56:72
  TRACK 96 AUDIO
    TITLE "33:cjc160_3506"
    INDEX 01 01:57:36
  TRACK 97 AUDIO
    TITLE "0:"
    INDEX 01 01:59:56
  TRACK 98 AUDIO
    TITLE "34:cjc160_3507"
    INDEX 01 02:00:23
  TRACK 99 AUDIO
    TITLE "0:"
    INDEX 01 02:02:18
  TRACK 100 AUDIO
    TITLE "35:cjc160_3508"
    INDEX 01 02:02:45
  TRACK 101 AUDIO
    TITLE "0:"
    INDEX 01 02:04:44
  TRACK 102 AUDIO
    TITLE "31:cjc160_3509"
    INDEX 01 02:05:47
  TRACK 103 AUDIO
    TITLE "0:"
    INDEX 01 02:06:62
  TRACK 104 AUDIO
    TITLE "32:cjc160_3510"
    INDEX 01 02:07:32
  TRACK 105 AUDIO
    TITLE "0:"
    INDEX 01 02:08:46
  TRACK 106 AUDIO
    TITLE "33:cjc160_3511"
    INDEX 01 02:09:06
  TRACK 107 AUDIO
    TITLE "0:"
    INDEX 01 02:10:72
  TRACK 108 AUDIO
    TITLE "34:cjc160_3512"
    INDEX 01 02:11:32
  TRACK 109 AUDIO
    TITLE "0:"
    INDEX 01 02:13:47
  TRACK 110 AUDIO
    TITLE "35:cjc160_3513"
    INDEX 01 02:13:68
  TRACK 111 AUDIO
    TITLE "0:"
    INDEX 01 02:16:10
  TRACK 112 AUDIO
    TITLE "31:cjc160_3514"
    INDEX 01 02:17:11
  TRACK 113 AUDIO
    TITLE "0:"
    INDEX 01 02:18:19
  TRACK 114 AUDIO
    TITLE "32:cjc160_3515"
    INDEX 01 02:18:58
  TRACK 115 AUDIO
    TITLE "0:"
    INDEX 01 02:21:15
  TRACK 116 AUDIO
    TITLE "33:cjc160_3516"
    INDEX 01 02:21:52
  TRACK 117 AUDIO
    TITLE "0:"
    INDEX 01 02:23:20
  TRACK 118 AUDIO
    TITLE "34:cjc160_3517"
    INDEX 01 02:23:61
  TRACK 119 AUDIO
    TITLE "0:"
    INDEX 01 02:25:32
  TRACK 120 AUDIO
    TITLE "35:cjc160_3518"
    INDEX 01 02:25:58
  TRACK 121 AUDIO
    TITLE "0:"
    INDEX 01 02:27:29
  TRACK 122 AUDIO
    TITLE "31:cjc160_3519"
    INDEX 01 02:28:31
  TRACK 123 AUDIO
    TITLE "0:"
    INDEX 01 02:30:14
  TRACK 124 AUDIO
    TITLE "32:cjc160_3520"
    INDEX 01 02:30:51
  TRACK 125 AUDIO
    TITLE "0:"
    INDEX 01 02:31:62
  TRACK 126 AUDIO
    TITLE "33:cjc160_3521"
    INDEX 01 02:32:28
  TRACK 127 AUDIO
    TITLE "0:"
    INDEX 01 02:34:66
  TRACK 128 AUDIO
    TITLE "34:cjc160_3522"
    INDEX 01 02:35:31
  TRACK 129 AUDIO
    TITLE "0:"
    INDEX 01 02:38:25
  TRACK 130 AUDIO
    TITLE "35:cjc160_3523"
    INDEX 01 02:38:51
  TRACK 131 AUDIO
    TITLE "0:"
    INDEX 01 02:41:45
  TRACK 132 AUDIO
    TITLE "31:cjc160_3524"
    INDEX 01 02:42:46
  TRACK 133 AUDIO
    TITLE "0:"
    INDEX 01 02:44:06
  TRACK 134 AUDIO
    TITLE "32:cjc160_3525"
    INDEX 01 02:44:43
  TRACK 135 AUDIO
    TITLE "0:"
    INDEX 01 02:47:73
  TRACK 136 AUDIO
    TITLE "33:cjc160_3526"
    INDEX 01 02:48:51
  TRACK 137 AUDIO
    TITLE "0:"
    INDEX 01 02:50:67
  TRACK 138 AUDIO
    TITLE "34:cjc160_3527"
    INDEX 01 02:51:30
  TRACK 139 AUDIO
    TITLE "0:"
    INDEX 01 02:53:40
  TRACK 140 AUDIO
    TITLE "35:cjc160_3528"
    INDEX 01 02:53:66
  TRACK 141 AUDIO
    TITLE "0:"
    INDEX 01 02:55:69
  TRACK 142 AUDIO
    TITLE "31:cjc160_3529"
    INDEX 01 02:56:74
  TRACK 143 AUDIO
    TITLE "0:"
    INDEX 01 02:58:12
  TRACK 144 AUDIO
    TITLE "32:cjc160_3530"
    INDEX 01 02:58:47
  TRACK 145 AUDIO
    TITLE "0:"
    INDEX 01 02:59:64
  TRACK 146 AUDIO
    TITLE "33:cjc160_3531"
    INDEX 01 03:00:23
  TRACK 147 AUDIO
    TITLE "0:"
    INDEX 01 03:02:41
  TRACK 148 AUDIO
    TITLE "34:cjc160_3532"
    INDEX 01 03:03:03
  TRACK 149 AUDIO
    TITLE "0:"
    INDEX 01 03:05:18
  TRACK 150 AUDIO
    TITLE "35:cjc160_3533"
    INDEX 01 03:05:45
  TRACK 151 AUDIO
    TITLE "0:"
    INDEX 01 03:07:58
  TRACK 152 AUDIO
    TITLE "31:cjc160_3534"
    INDEX 01 03:08:58
  TRACK 153 AUDIO
    TITLE "0:"
    INDEX 01 03:10:04
  TRACK 154 AUDIO
    TITLE "32:cjc160_3535"
    INDEX 01 03:10:39
  TRACK 155 AUDIO
    TITLE "0:"
    INDEX 01 03:13:39
  TRACK 156 AUDIO
    TITLE "33:cjc160_3536"
    INDEX 01 03:14:03
  TRACK 157 AUDIO
    TITLE "0:"
    INDEX 01 03:16:37
  TRACK 158 AUDIO
    TITLE "34:cjc160_3537"
    INDEX 01 03:17:02
  TRACK 159 AUDIO
    TITLE "0:"
    INDEX 01 03:18:46
  TRACK 160 AUDIO
    TITLE "35:cjc160_3538"
    INDEX 01 03:18:72
  TRACK 161 AUDIO
    TITLE "0:"
    INDEX 01 03:20:41
  TRACK 162 AUDIO
    TITLE "31:cjc160_3539"
    INDEX 01 03:21:43
  TRACK 163 AUDIO
    TITLE "0:"
    INDEX 01 03:22:66
  TRACK 164 AUDIO
    TITLE "32:cjc160_3540"
    INDEX 01 03:23:30
  TRACK 165 AUDIO
    TITLE "0:"
    INDEX 01 03:24:61
  TRACK 166 AUDIO
    TITLE "33:cjc160_3541"
    INDEX 01 03:25:25
  TRACK 167 AUDIO
    TITLE "0:"
    INDEX 01 03:28:09
  TRACK 168 AUDIO
    TITLE "34:cjc160_3542"
    INDEX 01 03:28:50
  TRACK 169 AUDIO
    TITLE "0:"
    INDEX 01 03:31:00
  TRACK 170 AUDIO
    TITLE "35:cjc160_3543"
    INDEX 01 03:31:25
  TRACK 171 AUDIO
    TITLE "0:"
    INDEX 01 03:33:50
  TRACK 172 AUDIO
    TITLE "31:cjc160_3544"
    INDEX 01 03:34:49
  TRACK 173 AUDIO
    TITLE "0:"
    INDEX 01 03:36:01
  TRACK 174 AUDIO
    TITLE "32:cjc160_3545"
    INDEX 01 03:36:34
  TRACK 175 AUDIO
    TITLE "0:"
    INDEX 01 03:37:61
  TRACK 176 AUDIO
    TITLE "33:cjc160_3546"
    INDEX 01 03:38:25
  TRACK 177 AUDIO
    TITLE "0:"
    INDEX 01 03:40:65
  TRACK 178 AUDIO
    TITLE "34:cjc160_3547"
    INDEX 01 03:41:28
  TRACK 179 AUDIO
    TITLE "0:"
    INDEX 01 03:43:72
  TRACK 180 AUDIO
    TITLE "35:cjc160_3548"
    INDEX 01 03:44:20
  TRACK 181 AUDIO
    TITLE "0:"
    INDEX 01 03:46:64
  TRACK 182 AUDIO
    TITLE "31:cjc160_3549"
    INDEX 01 03:47:62
  TRACK 183 AUDIO
    TITLE "0:"
    INDEX 01 03:49:37
  TRACK 184 AUDIO
    TITLE "32:cjc160_3550"
    INDEX 01 03:50:01
  TRACK 185 AUDIO
    TITLE "0:"
    INDEX 01 03:52:51
  TRACK 186 AUDIO
    TITLE "33:cjc160_3551"
    INDEX 01 03:53:15
  TRACK 187 AUDIO
    TITLE "0:"
    INDEX 01 03:55:41
  TRACK 188 AUDIO
    TITLE "34:cjc160_3552"
    INDEX 01 03:56:06
  TRACK 189 AUDIO
    TITLE "0:"
    INDEX 01 03:58:38
  TRACK 190 AUDIO
    TITLE "35:cjc160_3553"
    INDEX 01 03:58:63
  TRACK 191 AUDIO
    TITLE "0:"
    INDEX 01 04:01:21
  TRACK 192 AUDIO
    TITLE "31:cjc160_3554"
    INDEX 01 04:02:24
  TRACK 193 AUDIO
    TITLE "0:"
    INDEX 01 04:03:63
  TRACK 194 AUDIO
    TITLE "32:cjc160_3555"
    INDEX 01 04:04:27
  TRACK 195 AUDIO
    TITLE "0:"
    INDEX 01 04:05:50
  TRACK 196 AUDIO
    TITLE "33:cjc160_3556"
    INDEX 01 04:06:14
  TRACK 197 AUDIO
    TITLE "0:"
    INDEX 01 04:08:32
  TRACK 198 AUDIO
    TITLE "34:cjc160_3557"
    INDEX 01 04:08:70
  TRACK 199 AUDIO
    TITLE "0:"
    INDEX 01 04:11:33
  TRACK 200 AUDIO
    TITLE "35:cjc160_3558"
    INDEX 01 04:11:58
  TRACK 201 AUDIO
    TITLE "0:"
    INDEX 01 04:14:19
  TRACK 202 AUDIO
    TITLE "31:cjc160_3559"
    INDEX 01 04:15:21
  TRACK 203 AUDIO
    TITLE "0:"
    INDEX 01 04:16:61
  TRACK 204 AUDIO
    TITLE "32:cjc160_3560"
    INDEX 01 04:17:25
  TRACK 205 AUDIO
    TITLE "0:"
    INDEX 01 04:18:48
  TRACK 206 AUDIO
    TITLE "33:cjc160_3561"
    INDEX 01 04:19:28
  TRACK 207 AUDIO
    TITLE "0:"
    INDEX 01 04:22:48
  TRACK 208 AUDIO
    TITLE "34:cjc160_3562"
    INDEX 01 04:23:14
  TRACK 209 AUDIO
    TITLE "0:"
    INDEX 01 04:26:66
  TRACK 210 AUDIO
    TITLE "35:cjc160_3563"
    INDEX 01 04:27:14
  TRACK 211 AUDIO
    TITLE "0:"
    INDEX 01 04:30:65
  TRACK 212 AUDIO
    TITLE "31:cjc160_3564"
    INDEX 01 04:31:67
  TRACK 213 AUDIO
    TITLE "0:"
    INDEX 01 04:33:07
  TRACK 214 AUDIO
    TITLE "32:cjc160_3565"
    INDEX 01 04:33:50
  TRACK 215 AUDIO
    TITLE "0:"
    INDEX 01 04:35:74
  TRACK 216 AUDIO
    TITLE "33:cjc160_3566"
    INDEX 01 04:36:37
  TRACK 217 AUDIO
    TITLE "0:"
    INDEX 01 04:39:11
  TRACK 218 AUDIO
    TITLE "34:cjc160_3567"
    INDEX 01 04:39:52
  TRACK 219 AUDIO
    TITLE "0:"
    INDEX 01 04:42:27
  TRACK 220 AUDIO
    TITLE "35:cjc160_3568"
    INDEX 01 04:42:55
  TRACK 221 AUDIO
    TITLE "0:"
    INDEX 01 04:45:33
  TRACK 222 AUDIO
    TITLE "31:cjc160_3569"
    INDEX 01 04:46:35
  TRACK 223 AUDIO
    TITLE "0:"
    INDEX 01 04:47:48
  TRACK 224 AUDIO
    TITLE "32:cjc160_3570"
    INDEX 01 04:48:12
  TRACK 225 AUDIO
    TITLE "0:"
    INDEX 01 04:49:74
  TRACK 226 AUDIO
    TITLE "33:cjc160_3571"
    INDEX 01 04:50:41
  TRACK 227 AUDIO
    TITLE "0:"
    INDEX 01 04:52:53
  TRACK 228 AUDIO
    TITLE "34:cjc160_3572"
    INDEX 01 04:53:17
  TRACK 229 AUDIO
    TITLE "0:"
    INDEX 01 04:55:10
  TRACK 230 AUDIO
    TITLE "35:cjc160_3573"
    INDEX 01 04:55:40
  TRACK 231 AUDIO
    TITLE "0:"
    INDEX 01 04:57:29
  TRACK 232 AUDIO
    TITLE "31:cjc160_3574"
    INDEX 01 04:58:32
  TRACK 233 AUDIO
    TITLE "0:"
    INDEX 01 05:00:21
  TRACK 234 AUDIO
    TITLE "32:cjc160_3575"
    INDEX 01 05:00:59
  TRACK 235 AUDIO
    TITLE "0:"
    INDEX 01 05:02:14
  TRACK 236 AUDIO
    TITLE "33:cjc160_3576"
    INDEX 01 05:02:54
  TRACK 237 AUDIO
    TITLE "0:"
    INDEX 01 05:05:13
  TRACK 238 AUDIO
    TITLE "34:cjc160_3577"
    INDEX 01 05:05:52
  TRACK 239 AUDIO
    TITLE "0:"
    INDEX 01 05:08:17
  TRACK 240 AUDIO
    TITLE "35:cjc160_3578"
    INDEX 01 05:08:42
  TRACK 241 AUDIO
    TITLE "0:"
    INDEX 01 05:11:05
  TRACK 242 AUDIO
    TITLE "31:cjc160_3579"
    INDEX 01 05:12:07
  TRACK 243 AUDIO
    TITLE "0:"
    INDEX 01 05:13:18
  TRACK 244 AUDIO
    TITLE "32:cjc160_3580"
    INDEX 01 05:13:55
  TRACK 245 AUDIO
    TITLE "0:"
    INDEX 01 05:16:09
  TRACK 246 AUDIO
    TITLE "33:cjc160_3581"
    INDEX 01 05:16:52
  TRACK 247 AUDIO
    TITLE "0:"
    INDEX 01 05:19:09
  TRACK 248 AUDIO
    TITLE "34:cjc160_3582"
    INDEX 01 05:19:44
  TRACK 249 AUDIO
    TITLE "0:"
    INDEX 01 05:21:45
  TRACK 250 AUDIO
    TITLE "35:cjc160_3583"
    INDEX 01 05:21:70
  TRACK 251 AUDIO
    TITLE "0:"
    INDEX 01 05:23:69
  TRACK 252 AUDIO
    TITLE "31:cjc160_3584"
    INDEX 01 05:24:71
  TRACK 253 AUDIO
    TITLE "0:"
    INDEX 01 05:26:50
  TRACK 254 AUDIO
    TITLE "32:cjc160_3585"
    INDEX 01 05:27:12
  TRACK 255 AUDIO
    TITLE "0:"
    INDEX 01 05:30:19
  TRACK 256 AUDIO
    TITLE "33:cjc160_3586"
    INDEX 01 05:30:58
  TRACK 257 AUDIO
    TITLE "0:"
    INDEX 01 05:33:33
  TRACK 258 AUDIO
    TITLE "34:cjc160_3587"
    INDEX 01 05:33:72
  TRACK 259 AUDIO
    TITLE "0:"
    INDEX 01 05:36:33
  TRACK 260 AUDIO
    TITLE "35:cjc160_3588"
    INDEX 01 05:36:58
  TRACK 261 AUDIO
    TITLE "0:"
    INDEX 01 05:39:17
  TRACK 262 AUDIO
    TITLE "31:cjc160_3589"
    INDEX 01 05:40:19
  TRACK 263 AUDIO
    TITLE "0:"
    INDEX 01 05:41:12
  TRACK 264 AUDIO
    TITLE "32:cjc160_3590"
    INDEX 01 05:41:57
  TRACK 265 AUDIO
    TITLE "0:"
    INDEX 01 05:44:07
  TRACK 266 AUDIO
    TITLE "33:cjc160_3591"
    INDEX 01 05:44:40
  TRACK 267 AUDIO
    TITLE "0:"
    INDEX 01 05:46:37
  TRACK 268 AUDIO
    TITLE "34:cjc160_3592"
    INDEX 01 05:47:01
  TRACK 269 AUDIO
    TITLE "0:"
    INDEX 01 05:48:65
  TRACK 270 AUDIO
    TITLE "35:cjc160_3593"
    INDEX 01 05:49:16
  TRACK 271 AUDIO
    TITLE "0:"
    INDEX 01 05:51:05
  TRACK 272 AUDIO
    TITLE "31:cjc160_3594"
    INDEX 01 05:52:04
  TRACK 273 AUDIO
    TITLE "0:"
    INDEX 01 05:53:31
  TRACK 274 AUDIO
    TITLE "32:cjc160_3595"
    INDEX 01 05:53:69
  TRACK 275 AUDIO
    TITLE "0:"
    INDEX 01 05:56:30
  TRACK 276 AUDIO
    TITLE "33:cjc160_3596"
    INDEX 01 05:56:69
  TRACK 277 AUDIO
    TITLE "0:"
    INDEX 01 05:59:63
  TRACK 278 AUDIO
    TITLE "34:cjc160_3597"
    INDEX 01 06:00:29
  TRACK 279 AUDIO
    TITLE "0:"
    INDEX 01 06:03:06
  TRACK 280 AUDIO
    TITLE "35:cjc160_3598"
    INDEX 01 06:03:30
  TRACK 281 AUDIO
    TITLE "0:"
    INDEX 01 06:06:06
  TRACK 282 AUDIO
    TITLE "31:cjc160_3599"
    INDEX 01 06:07:06
  TRACK 283 AUDIO
    TITLE "0:"
    INDEX 01 06:08:33
  TRACK 284 AUDIO
    TITLE "32:cjc160_3600"
    INDEX 01 06:08:70
  TRACK 285 AUDIO
    TITLE "0:"
    INDEX 01 06:10:28
  TRACK 286 AUDIO
    TITLE "33:cjc160_3601"
    INDEX 01 06:10:65
  TRACK 287 AUDIO
    TITLE "0:"
    INDEX 01 06:12:66
  TRACK 288 AUDIO
    TITLE "34:cjc160_3602"
    INDEX 01 06:13:30
  TRACK 289 AUDIO
    TITLE "0:"
    INDEX 01 06:15:37
  TRACK 290 AUDIO
    TITLE "35:cjc160_3603"
    INDEX 01 06:15:62
  TRACK 291 AUDIO
    TITLE "0:"
    INDEX 01 06:17:69
  TRACK 292 AUDIO
    TITLE "31:cjc160_3604"
    INDEX 01 06:18:70
  TRACK 293 AUDIO
    TITLE "0:"
    INDEX 01 06:20:30
  TRACK 294 AUDIO
    TITLE "32:cjc160_3605"
    INDEX 01 06:20:67
  TRACK 295 AUDIO
    TITLE "0:"
    INDEX 01 06:22:15
  TRACK 296 AUDIO
    TITLE "33:cjc160_3606"
    INDEX 01 06:22:56
  TRACK 297 AUDIO
    TITLE "0:"
    INDEX 01 06:25:37
  TRACK 298 AUDIO
    TITLE "34:cjc160_3607"
    INDEX 01 06:26:05
  TRACK 299 AUDIO
    TITLE "0:"
    INDEX 01 06:28:20
  TRACK 300 AUDIO
    TITLE "35:cjc160_3608"
    INDEX 01 06:28:45
  TRACK 301 AUDIO
    TITLE "0:"
    INDEX 01 06:30:60
  TRACK 302 AUDIO
    TITLE "31:cjc160_3609"
    INDEX 01 06:31:61
  TRACK 303 AUDIO
    TITLE "0:"
    INDEX 01 06:33:21
  TRACK 304 AUDIO
    TITLE "32:cjc160_3610"
    INDEX 01 06:33:60
  TRACK 305 AUDIO
    TITLE "0:"
    INDEX 01 06:36:61
  TRACK 306 AUDIO
    TITLE "33:cjc160_3611"
    INDEX 01 06:37:29
  TRACK 307 AUDIO
    TITLE "0:"
    INDEX 01 06:39:28
  TRACK 308 AUDIO
    TITLE "34:cjc160_3612"
    INDEX 01 06:39:65
  TRACK 309 AUDIO
    TITLE "0:"
    INDEX 01 06:42:14
  TRACK 310 AUDIO
    TITLE "35:cjc160_3613"
    INDEX 01 06:42:38
  TRACK 311 AUDIO
    TITLE "0:"
    INDEX 01 06:44:60
  TRACK 312 AUDIO
    TITLE "31:cjc160_3614"
    INDEX 01 06:45:65
  TRACK 313 AUDIO
    TITLE "0:"
    INDEX 01 06:47:56
  TRACK 314 AUDIO
    TITLE "32:cjc160_3615"
    INDEX 01 06:48:19
  TRACK 315 AUDIO
    TITLE "0:"
    INDEX 01 06:50:37
  TRACK 316 AUDIO
    TITLE "33:cjc160_3616"
    INDEX 01 06:50:74
  TRACK 317 AUDIO
    TITLE "0:"
    INDEX 01 06:54:37
  TRACK 318 AUDIO
    TITLE "34:cjc160_3617"
    INDEX 01 06:55:03
  TRACK 319 AUDIO
    TITLE "0:"
    INDEX 01 06:57:74
  TRACK 320 AUDIO
    TITLE "35:cjc160_3618"
    INDEX 01 06:58:25
  TRACK 321 AUDIO
    TITLE "0:"
    INDEX 01 07:01:21
  TRACK 322 AUDIO
    TITLE "31:cjc160_3619"
    INDEX 01 07:02:29
  TRACK 323 AUDIO
    TITLE "0:"
    INDEX 01 07:03:40
  TRACK 324 AUDIO
    TITLE "32:cjc160_3620"
    INDEX 01 07:04:02
  TRACK 325 AUDIO
    TITLE "0:"
    INDEX 01 07:06:17
  TRACK 326 AUDIO
    TITLE "33:cjc160_3621"
    INDEX 01 07:06:56
  TRACK 327 AUDIO
    TITLE "0:"
    INDEX 01 07:09:29
  TRACK 328 AUDIO
    TITLE "34:cjc160_3622"
    INDEX 01 07:09:68
  TRACK 329 AUDIO
    TITLE "0:"
    INDEX 01 07:12:48
  TRACK 330 AUDIO
    TITLE "35:cjc160_3623"
    INDEX 01 07:13:01
  TRACK 331 AUDIO
    TITLE "0:"
    INDEX 01 07:15:53
  TRACK 332 AUDIO
    TITLE "31:cjc160_3624"
    INDEX 01 07:16:60
  TRACK 333 AUDIO
    TITLE "0:"
    INDEX 01 07:18:22
  TRACK 334 AUDIO
    TITLE "32:cjc160_3625"
    INDEX 01 07:18:57
  TRACK 335 AUDIO
    TITLE "0:"
    INDEX 01 07:20:11
  TRACK 336 AUDIO
    TITLE "33:cjc160_3626"
    INDEX 01 07:20:48
  TRACK 337 AUDIO
    TITLE "0:"
    INDEX 01 07:23:19
  TRACK 338 AUDIO
    TITLE "34:cjc160_3627"
    INDEX 01 07:23:60
  TRACK 339 AUDIO
    TITLE "0:"
    INDEX 01 07:26:39
  TRACK 340 AUDIO
    TITLE "35:cjc160_3628"
    INDEX 01 07:26:74
  TRACK 341 AUDIO
    TITLE "0:"
    INDEX 01 07:29:51
  TRACK 342 AUDIO
    TITLE "31:cjc160_3629"
    INDEX 01 07:30:60
  TRACK 343 AUDIO
    TITLE "0:"
    INDEX 01 07:32:69
  TRACK 344 AUDIO
    TITLE "32:cjc160_3630"
    INDEX 01 07:33:33
  TRACK 345 AUDIO
    TITLE "0:"
    INDEX 01 07:35:12
  TRACK 346 AUDIO
    TITLE "33:cjc160_3631"
    INDEX 01 07:35:53
  TRACK 347 AUDIO
    TITLE "0:"
    INDEX 01 07:39:08
  TRACK 348 AUDIO
    TITLE "34:cjc160_3632"
    INDEX 01 07:39:53
  TRACK 349 AUDIO
    TITLE "0:"
    INDEX 01 07:43:14
  TRACK 350 AUDIO
    TITLE "35:cjc160_3633"
    INDEX 01 07:43:43
  TRACK 351 AUDIO
    TITLE "0:"
    INDEX 01 07:47:04
  TRACK 352 AUDIO
    TITLE "31:cjc160_3634"
    INDEX 01 07:48:07
  TRACK 353 AUDIO
    TITLE "0:"
    INDEX 01 07:49:10
  TRACK 354 AUDIO
    TITLE "32:cjc160_3635"
    INDEX 01 07:49:57
  TRACK 355 AUDIO
    TITLE "0:"
    INDEX 01 07:51:74
  TRACK 356 AUDIO
    TITLE "33:cjc160_3636"
    INDEX 01 07:52:34
  TRACK 357 AUDIO
    TITLE "0:"
    INDEX 01 07:55:54
  TRACK 358 AUDIO
    TITLE "34:cjc160_3637"
    INDEX 01 07:56:18
  TRACK 359 AUDIO
    TITLE "0:"
    INDEX 01 07:58:51
  TRACK 360 AUDIO
    TITLE "35:cjc160_3638"
    INDEX 01 07:58:74
  TRACK 361 AUDIO
    TITLE "0:"
    INDEX 01 08:01:33
  TRACK 362 AUDIO
    TITLE "31:cjc160_3639"
    INDEX 01 08:02:33
  TRACK 363 AUDIO
    TITLE "0:"
    INDEX 01 08:03:58
  TRACK 364 AUDIO
    TITLE "32:cjc160_3640"
    INDEX 01 08:04:20
  TRACK 365 AUDIO
    TITLE "0:"
    INDEX 01 08:07:03
  TRACK 366 AUDIO
    TITLE "33:cjc160_3641"
    INDEX 01 08:07:44
  TRACK 367 AUDIO
    TITLE "0:"
    INDEX 01 08:11:30
  TRACK 368 AUDIO
    TITLE "34:cjc160_3642"
    INDEX 01 08:11:71
  TRACK 369 AUDIO
    TITLE "0:"
    INDEX 01 08:15:10
  TRACK 370 AUDIO
    TITLE "35:cjc160_3643"
    INDEX 01 08:15:43
  TRACK 371 AUDIO
    TITLE "0:"
    INDEX 01 08:18:59
  TRACK 372 AUDIO
    TITLE "31:cjc160_3644"
    INDEX 01 08:19:64
  TRACK 373 AUDIO
    TITLE "0:"
    INDEX 01 08:21:12
  TRACK 374 AUDIO
    TITLE "32:cjc160_3645"
    INDEX 01 08:21:57
  TRACK 375 AUDIO
    TITLE "0:"
    INDEX 01 08:23:04
  TRACK 376 AUDIO
    TITLE "33:cjc160_3646"
    INDEX 01 08:23:41
  TRACK 377 AUDIO
    TITLE "0:"
    INDEX 01 08:26:43
  TRACK 378 AUDIO
    TITLE "34:cjc160_3647"
    INDEX 01 08:27:05
  TRACK 379 AUDIO
    TITLE "0:"
    INDEX 01 08:29:41
  TRACK 380 AUDIO
    TITLE "35:cjc160_3648"
    INDEX 01 08:29:67
  TRACK 381 AUDIO
    TITLE "0:"
    INDEX 01 08:32:28
  TRACK 382 AUDIO
    TITLE "31:cjc160_3649"
    INDEX 01 08:33:29
  TRACK 383 AUDIO
    TITLE "0:"
    INDEX 01 08:34:62
  TRACK 384 AUDIO
    TITLE "32:cjc160_3650"
    INDEX 01 08:35:24
  TRACK 385 AUDIO
    TITLE "0:"
    INDEX 01 08:37:27
  TRACK 386 AUDIO
    TITLE "33:cjc160_3651"
    INDEX 01 08:37:64
  TRACK 387 AUDIO
    TITLE "0:"
    INDEX 01 08:40:14
  TRACK 388 AUDIO
    TITLE "34:cjc160_3652"
    INDEX 01 08:40:53
  TRACK 389 AUDIO
    TITLE "0:"
    INDEX 01 08:42:66
  TRACK 390 AUDIO
    TITLE "35:cjc160_3653"
    INDEX 01 08:43:14
  TRACK 391 AUDIO
    TITLE "0:"
    INDEX 01 08:45:27
  TRACK 392 AUDIO
    TITLE "31:cjc160_3654"
    INDEX 01 08:46:28
  TRACK 393 AUDIO
    TITLE "0:"
    INDEX 01 08:47:43
  TRACK 394 AUDIO
    TITLE "32:cjc160_3655"
    INDEX 01 08:48:07
  TRACK 395 AUDIO
    TITLE "0:"
    INDEX 01 08:50:28
  TRACK 396 AUDIO
    TITLE "33:cjc160_3656"
    INDEX 01 08:50:67
  TRACK 397 AUDIO
    TITLE "0:"
    INDEX 01 08:53:42
  TRACK 398 AUDIO
    TITLE "34:cjc160_3657"
    INDEX 01 08:54:06
  TRACK 399 AUDIO
    TITLE "0:"
    INDEX 01 08:56:48
  TRACK 400 AUDIO
    TITLE "35:cjc160_3658"
    INDEX 01 08:56:70
  TRACK 401 AUDIO
    TITLE "0:"
    INDEX 01 08:59:37
  TRACK 402 AUDIO
    TITLE "31:cjc160_3659"
    INDEX 01 09:00:34
  TRACK 403 AUDIO
    TITLE "0:"
    INDEX 01 09:01:57
  TRACK 404 AUDIO
    TITLE "32:cjc160_3660"
    INDEX 01 09:02:19
  TRACK 405 AUDIO
    TITLE "0:"
    INDEX 01 09:04:53
  TRACK 406 AUDIO
    TITLE "33:cjc160_3661"
    INDEX 01 09:05:12
  TRACK 407 AUDIO
    TITLE "0:"
    INDEX 01 09:08:22
  TRACK 408 AUDIO
    TITLE "34:cjc160_3662"
    INDEX 01 09:08:61
  TRACK 409 AUDIO
    TITLE "0:"
    INDEX 01 09:11:18
  TRACK 410 AUDIO
    TITLE "35:cjc160_3663"
    INDEX 01 09:11:46
  TRACK 411 AUDIO
    TITLE "0:"
    INDEX 01 09:14:03
  TRACK 412 AUDIO
    TITLE "31:cjc160_3664"
    INDEX 01 09:15:06
  TRACK 413 AUDIO
    TITLE "0:"
    INDEX 01 09:16:35
  TRACK 414 AUDIO
    TITLE "32:cjc160_3665"
    INDEX 01 09:16:72
  TRACK 415 AUDIO
    TITLE "0:"
    INDEX 01 09:18:52
  TRACK 416 AUDIO
    TITLE "33:cjc160_3666"
    INDEX 01 09:19:16
  TRACK 417 AUDIO
    TITLE "0:"
    INDEX 01 09:22:45
  TRACK 418 AUDIO
    TITLE "34:cjc160_3667"
    INDEX 01 09:23:08
  TRACK 419 AUDIO
    TITLE "0:"
    INDEX 01 09:25:57
  TRACK 420 AUDIO
    TITLE "35:cjc160_3668"
    INDEX 01 09:26:10
  TRACK 421 AUDIO
    TITLE "0:"
    INDEX 01 09:28:56
  TRACK 422 AUDIO
    TITLE "31:cjc160_3669"
    INDEX 01 09:29:57
  TRACK 423 AUDIO
    TITLE "0:"
    INDEX 01 09:31:03
  TRACK 424 AUDIO
    TITLE "32:cjc160_3670"
    INDEX 01 09:31:40
  TRACK 425 AUDIO
    TITLE "0:"
    INDEX 01 09:34:25
  TRACK 426 AUDIO
    TITLE "33:cjc160_3671"
    INDEX 01 09:34:66
  TRACK 427 AUDIO
    TITLE "0:"
    INDEX 01 09:37:16
  TRACK 428 AUDIO
    TITLE "34:cjc160_3672"
    INDEX 01 09:37:55
  TRACK 429 AUDIO
    TITLE "0:"
    INDEX 01 09:39:58
  TRACK 430 AUDIO
    TITLE "35:cjc160_3673"
    INDEX 01 09:40:08
  TRACK 431 AUDIO
    TITLE "0:"
    INDEX 01 09:42:11
  TRACK 432 AUDIO
    TITLE "31:cjc160_3674"
    INDEX 01 09:43:10
  TRACK 433 AUDIO
    TITLE "0:"
    INDEX 01 09:44:22
  TRACK 434 AUDIO
    TITLE "32:cjc160_3675"
    INDEX 01 09:44:61
  TRACK 435 AUDIO
    TITLE "0:"
    INDEX 01 09:48:17
  TRACK 436 AUDIO
    TITLE "33:cjc160_3676"
    INDEX 01 09:48:59
  TRACK 437 AUDIO
    TITLE "0:"
    INDEX 01 09:50:52
  TRACK 438 AUDIO
    TITLE "34:cjc160_3677"
    INDEX 01 09:51:16
  TRACK 439 AUDIO
    TITLE "0:"
    INDEX 01 09:53:21
  TRACK 440 AUDIO
    TITLE "35:cjc160_3678"
    INDEX 01 09:53:44
  TRACK 441 AUDIO
    TITLE "0:"
    INDEX 01 09:55:51
  TRACK 442 AUDIO
    TITLE "31:cjc160_3679"
    INDEX 01 09:56:50
  TRACK 443 AUDIO
    TITLE "0:"
    INDEX 01 09:58:06
  TRACK 444 AUDIO
    TITLE "32:cjc160_3680"
    INDEX 01 09:58:45
  TRACK 445 AUDIO
    TITLE "0:"
    INDEX 01 10:02:08
  TRACK 446 AUDIO
    TITLE "33:cjc160_3681"
    INDEX 01 10:02:47
  TRACK 447 AUDIO
    TITLE "0:"
    INDEX 01 10:05:47
  TRACK 448 AUDIO
    TITLE "34:cjc160_3682"
    INDEX 01 10:06:15
  TRACK 449 AUDIO
    TITLE "0:"
    INDEX 01 10:08:51
  TRACK 450 AUDIO
    TITLE "35:cjc160_3683"
    INDEX 01 10:09:00
  TRACK 451 AUDIO
    TITLE "0:"
    INDEX 01 10:11:36
  TRACK 452 AUDIO
    TITLE "31:cjc160_3684"
    INDEX 01 10:12:36
  TRACK 453 AUDIO
    TITLE "0:"
    INDEX 01 10:14:48
  TRACK 454 AUDIO
    TITLE "32:cjc160_3685"
    INDEX 01 10:15:10
  TRACK 455 AUDIO
    TITLE "0:"
    INDEX 01 10:16:20
  TRACK 456 AUDIO
    TITLE "33:cjc160_3686"
    INDEX 01 10:16:61
  TRACK 457 AUDIO
    TITLE "0:"
    INDEX 01 10:18:54
  TRACK 458 AUDIO
    TITLE "34:cjc160_3687"
    INDEX 01 10:19:20
  TRACK 459 AUDIO
    TITLE "0:"
    INDEX 01 10:21:07
  TRACK 460 AUDIO
    TITLE "35:cjc160_3688"
    INDEX 01 10:21:38
  TRACK 461 AUDIO
    TITLE "0:"
    INDEX 01 10:23:28
  TRACK 462 AUDIO
    TITLE "31:cjc160_3689"
    INDEX 01 10:24:33
  TRACK 463 AUDIO
    TITLE "0:"
    INDEX 01 10:25:60
  TRACK 464 AUDIO
    TITLE "32:cjc160_3690"
    INDEX 01 10:26:22
  TRACK 465 AUDIO
    TITLE "0:"
    INDEX 01 10:28:54
  TRACK 466 AUDIO
    TITLE "33:cjc160_3691"
    INDEX 01 10:29:18
  TRACK 467 AUDIO
    TITLE "0:"
    INDEX 01 10:31:21
  TRACK 468 AUDIO
    TITLE "34:cjc160_3692"
    INDEX 01 10:31:64
  TRACK 469 AUDIO
    TITLE "0:"
    INDEX 01 10:33:46
  TRACK 470 AUDIO
    TITLE "35:cjc160_3693"
    INDEX 01 10:34:00
  TRACK 471 AUDIO
    TITLE "0:"
    INDEX 01 10:35:58
  TRACK 472 AUDIO
    TITLE "31:cjc160_3694"
    INDEX 01 10:36:61
  TRACK 473 AUDIO
    TITLE "0:"
    INDEX 01 10:38:37
  TRACK 474 AUDIO
    TITLE "32:cjc160_3695"
    INDEX 01 10:38:74
  TRACK 475 AUDIO
    TITLE "0:"
    INDEX 01 10:41:39
  TRACK 476 AUDIO
    TITLE "33:cjc160_3696"
    INDEX 01 10:41:72
  TRACK 477 AUDIO
    TITLE "0:"
    INDEX 01 10:44:28
  TRACK 478 AUDIO
    TITLE "34:cjc160_3697"
    INDEX 01 10:44:69
  TRACK 479 AUDIO
    TITLE "0:"
    INDEX 01 10:47:26
  TRACK 480 AUDIO
    TITLE "35:cjc160_3698"
    INDEX 01 10:47:53
  TRACK 481 AUDIO
    TITLE "0:"
    INDEX 01 10:50:13
  TRACK 482 AUDIO
    TITLE "31:cjc160_3699"
    INDEX 01 10:51:14
  TRACK 483 AUDIO
    TITLE "0:"
    INDEX 01 10:52:29
  TRACK 484 AUDIO
    TITLE "32:cjc160_3700"
    INDEX 01 10:52:68
  TRACK 485 AUDIO
    TITLE "0:"
    INDEX 01 10:55:47
  TRACK 486 AUDIO
    TITLE "33:cjc160_3701"
    INDEX 01 10:56:11
  TRACK 487 AUDIO
    TITLE "0:"
    INDEX 01 10:58:49
  TRACK 488 AUDIO
    TITLE "34:cjc160_3702"
    INDEX 01 10:59:10
  TRACK 489 AUDIO
    TITLE "0:"
    INDEX 01 11:01:54
  TRACK 490 AUDIO
    TITLE "35:cjc160_3703"
    INDEX 01 11:02:02
  TRACK 491 AUDIO
    TITLE "0:"
    INDEX 01 11:04:46
  TRACK 492 AUDIO
    TITLE "31:cjc160_3704"
    INDEX 01 11:05:46
  TRACK 493 AUDIO
    TITLE "0:"
    INDEX 01 11:06:70
  TRACK 494 AUDIO
    TITLE "32:cjc160_3705"
    INDEX 01 11:07:37
  TRACK 495 AUDIO
    TITLE "0:"
    INDEX 01 11:08:58
  TRACK 496 AUDIO
    TITLE "33:cjc160_3706"
    INDEX 01 11:09:20
  TRACK 497 AUDIO
    TITLE "0:"
    INDEX 01 11:11:44
  TRACK 498 AUDIO
    TITLE "34:cjc160_3707"
    INDEX 01 11:12:12
  TRACK 499 AUDIO
    TITLE "0:"
    INDEX 01 11:14:41
  TRACK 500 AUDIO
    TITLE "35:cjc160_3708"
    INDEX 01 11:14:68
  TRACK 501 AUDIO
    TITLE "0:"
    INDEX 01 11:17:23
  TRACK 502 AUDIO
    TITLE "31:cjc160_3709"
    INDEX 01 11:18:30
  TRACK 503 AUDIO
    TITLE "0:"
    INDEX 01 11:20:14
  TRACK 504 AUDIO
    TITLE "32:cjc160_3710"
    INDEX 01 11:20:55
  TRACK 505 AUDIO
    TITLE "0:"
    INDEX 01 11:21:74
  TRACK 506 AUDIO
    TITLE "33:cjc160_3711"
    INDEX 01 11:22:38
  TRACK 507 AUDIO
    TITLE "0:"
    INDEX 01 11:24:49
  TRACK 508 AUDIO
    TITLE "34:cjc160_3712"
    INDEX 01 11:25:13
  TRACK 509 AUDIO
    TITLE "0:"
    INDEX 01 11:28:05
  TRACK 510 AUDIO
    TITLE "35:cjc160_3713"
    INDEX 01 11:28:31
  TRACK 511 AUDIO
    TITLE "0:"
    INDEX 01 11:31:23
  TRACK 512 AUDIO
    TITLE "31:cjc160_3714"
    INDEX 01 11:32:23
  TRACK 513 AUDIO
    TITLE "0:"
    INDEX 01 11:33:52
  TRACK 514 AUDIO
    TITLE "32:cjc160_3715"
    INDEX 01 11:34:22
  TRACK 515 AUDIO
    TITLE "0:"
    INDEX 01 11:35:52
  TRACK 516 AUDIO
    TITLE "33:cjc160_3716"
    INDEX 01 11:36:17
  TRACK 517 AUDIO
    TITLE "0:"
    INDEX 01 11:38:72
  TRACK 518 AUDIO
    TITLE "34:cjc160_3717"
    INDEX 01 11:39:37
  TRACK 519 AUDIO
    TITLE "0:"
    INDEX 01 11:42:19
  TRACK 520 AUDIO
    TITLE "35:cjc160_3718"
    INDEX 01 11:42:43
  TRACK 521 AUDIO
    TITLE "0:"
    INDEX 01 11:45:23
  TRACK 522 AUDIO
    TITLE "31:cjc160_3719"
    INDEX 01 11:46:23
  TRACK 523 AUDIO
    TITLE "0:"
    INDEX 01 11:47:65
  TRACK 524 AUDIO
    TITLE "32:cjc160_3720"
    INDEX 01 11:48:28
  TRACK 525 AUDIO
    TITLE "0:"
    INDEX 01 11:49:45
  TRACK 526 AUDIO
    TITLE "33:cjc160_3721"
    INDEX 01 11:50:11
  TRACK 527 AUDIO
    TITLE "0:"
    INDEX 01 11:52:61
  TRACK 528 AUDIO
    TITLE "34:cjc160_3722"
    INDEX 01 11:53:29
  TRACK 529 AUDIO
    TITLE "0:"
    INDEX 01 11:57:09
  TRACK 530 AUDIO
    TITLE "35:cjc160_3723"
    INDEX 01 11:57:33
  TRACK 531 AUDIO
    TITLE "0:"
    INDEX 01 12:01:15
  TRACK 532 AUDIO
    TITLE "31:cjc160_3724"
    INDEX 01 12:02:14
  TRACK 533 AUDIO
    TITLE "0:"
    INDEX 01 12:03:35
  TRACK 534 AUDIO
    TITLE "32:cjc160_3725"
    INDEX 01 12:04:03
  TRACK 535 AUDIO
    TITLE "0:"
    INDEX 01 12:05:32
  TRACK 536 AUDIO
    TITLE "33:cjc160_3726"
    INDEX 01 12:05:71
  TRACK 537 AUDIO
    TITLE "0:"
    INDEX 01 12:08:52
  TRACK 538 AUDIO
    TITLE "34:cjc160_3727"
    INDEX 01 12:09:14
  TRACK 539 AUDIO
    TITLE "0:"
    INDEX 01 12:11:52
  TRACK 540 AUDIO
    TITLE "35:cjc160_3728"
    INDEX 01 12:12:03
  TRACK 541 AUDIO
    TITLE "0:"
    INDEX 01 12:14:39
  TRACK 542 AUDIO
    TITLE "31:cjc160_3729"
    INDEX 01 12:15:40
  TRACK 543 AUDIO
    TITLE "0:"
    INDEX 01 12:17:06
  TRACK 544 AUDIO
    TITLE "32:cjc160_3730"
    INDEX 01 12:17:43
  TRACK 545 AUDIO
    TITLE "0:"
    INDEX 01 12:20:00
  TRACK 546 AUDIO
    TITLE "33:cjc160_3731"
    INDEX 01 12:20:45
  TRACK 547 AUDIO
    TITLE "0:"
    INDEX 01 12:22:05
  TRACK 548 AUDIO
    TITLE "34:cjc160_3732"
    INDEX 01 12:22:42
  TRACK 549 AUDIO
    TITLE "0:"
    INDEX 01 12:24:57
  TRACK 550 AUDIO
    TITLE "35:cjc160_3733"
    INDEX 01 12:25:07
  TRACK 551 AUDIO
    TITLE "0:"
    INDEX 01 12:27:22
  TRACK 552 AUDIO
    TITLE "31:cjc160_3734"
    INDEX 01 12:28:23
  TRACK 553 AUDIO
    TITLE "0:"
    INDEX 01 12:29:56
  TRACK 554 AUDIO
    TITLE "32:cjc160_3735"
    INDEX 01 12:30:18
  TRACK 555 AUDIO
    TITLE "0:"
    INDEX 01 12:32:01
  TRACK 556 AUDIO
    TITLE "33:cjc160_3736"
    INDEX 01 12:32:41
  TRACK 557 AUDIO
    TITLE "0:"
    INDEX 01 12:35:41
  TRACK 558 AUDIO
    TITLE "34:cjc160_3737"
    INDEX 01 12:36:05
  TRACK 559 AUDIO
    TITLE "0:"
    INDEX 01 12:38:35
  TRACK 560 AUDIO
    TITLE "35:cjc160_3738"
    INDEX 01 12:38:59
  TRACK 561 AUDIO
    TITLE "0:"
    INDEX 01 12:41:16
  TRACK 562 AUDIO
    TITLE "31:cjc160_3739"
    INDEX 01 12:42:16
  TRACK 563 AUDIO
    TITLE "0:"
    INDEX 01 12:43:72
  TRACK 564 AUDIO
    TITLE "32:cjc160_3740"
    INDEX 01 12:44:32
  TRACK 565 AUDIO
    TITLE "0:"
    INDEX 01 12:47:68
  TRACK 566 AUDIO
    TITLE "33:cjc160_3741"
    INDEX 01 12:48:32
  TRACK 567 AUDIO
    TITLE "0:"
    INDEX 01 12:53:02
  TRACK 568 AUDIO
    TITLE "34:cjc160_3742"
    INDEX 01 12:53:41
  TRACK 569 AUDIO
    TITLE "0:"
    INDEX 01 12:57:50
  TRACK 570 AUDIO
    TITLE "35:cjc160_3743"
    INDEX 01 12:58:01
  TRACK 571 AUDIO
    TITLE "0:"
    INDEX 01 13:02:10
  TRACK 572 AUDIO
    TITLE "31:cjc160_3744"
    INDEX 01 13:03:10
  TRACK 573 AUDIO
    TITLE "0:"
    INDEX 01 13:04:17
  TRACK 574 AUDIO
    TITLE "32:cjc160_3745"
    INDEX 01 13:04:50
  TRACK 575 AUDIO
    TITLE "0:"
    INDEX 01 13:05:69
  TRACK 576 AUDIO
    TITLE "33:cjc160_3746"
    INDEX 01 13:06:32
  TRACK 577 AUDIO
    TITLE "0:"
    INDEX 01 13:08:31
  TRACK 578 AUDIO
    TITLE "34:cjc160_3747"
    INDEX 01 13:08:68
  TRACK 579 AUDIO
    TITLE "0:"
    INDEX 01 13:10:45
  TRACK 580 AUDIO
    TITLE "35:cjc160_3748"
    INDEX 01 13:11:00
  TRACK 581 AUDIO
    TITLE "0:"
    INDEX 01 13:12:50
  TRACK 582 AUDIO
    TITLE "31:cjc160_3749"
    INDEX 01 13:13:53
  TRACK 583 AUDIO
    TITLE "0:"
    INDEX 01 13:15:23
  TRACK 584 AUDIO
    TITLE "32:cjc160_3750"
    INDEX 01 13:15:70
  TRACK 585 AUDIO
    TITLE "0:"
    INDEX 01 13:19:15
  TRACK 586 AUDIO
    TITLE "33:cjc160_3751"
    INDEX 01 13:19:52
  TRACK 587 AUDIO
    TITLE "0:"
    INDEX 01 13:21:63
  TRACK 588 AUDIO
    TITLE "34:cjc160_3752"
    INDEX 01 13:22:25
  TRACK 589 AUDIO
    TITLE "0:"
    INDEX 01 13:24:73
  TRACK 590 AUDIO
    TITLE "35:cjc160_3753"
    INDEX 01 13:25:23
  TRACK 591 AUDIO
    TITLE "0:"
    INDEX 01 13:27:69
  TRACK 592 AUDIO
    TITLE "31:cjc160_3754"
    INDEX 01 13:28:73
  TRACK 593 AUDIO
    TITLE "0:"
    INDEX 01 13:30:03
  TRACK 594 AUDIO
    TITLE "32:cjc160_3755"
    INDEX 01 13:30:42
  TRACK 595 AUDIO
    TITLE "0:"
    INDEX 01 13:32:04
  TRACK 596 AUDIO
    TITLE "33:cjc160_3756"
    INDEX 01 13:32:41
  TRACK 597 AUDIO
    TITLE "0:"
    INDEX 01 13:35:55
  TRACK 598 AUDIO
    TITLE "34:cjc160_3757"
    INDEX 01 13:36:17
  TRACK 599 AUDIO
    TITLE "0:"
    INDEX 01 13:39:10
  TRACK 600 AUDIO
    TITLE "35:cjc160_3758"
    INDEX 01 13:39:29
  TRACK 601 AUDIO
    TITLE "0:"
    INDEX 01 13:42:22
  TRACK 602 AUDIO
    TITLE "31:cjc160_3759"
    INDEX 01 13:43:17
  TRACK 603 AUDIO
    TITLE "0:"
    INDEX 01 13:44:34
  TRACK 604 AUDIO
    TITLE "32:cjc160_3760"
    INDEX 01 13:44:73
  TRACK 605 AUDIO
    TITLE "0:"
    INDEX 01 13:47:74
  TRACK 606 AUDIO
    TITLE "33:cjc160_3761"
    INDEX 01 13:48:42
  TRACK 607 AUDIO
    TITLE "0:"
    INDEX 01 13:50:70
  TRACK 608 AUDIO
    TITLE "34:cjc160_3762"
    INDEX 01 13:51:34
  TRACK 609 AUDIO
    TITLE "0:"
    INDEX 01 13:53:74
  TRACK 610 AUDIO
    TITLE "35:cjc160_3763"
    INDEX 01 13:54:27
  TRACK 611 AUDIO
    TITLE "0:"
    INDEX 01 13:56:67
  TRACK 612 AUDIO
    TITLE "31:cjc160_3764"
    INDEX 01 13:57:68
  TRACK 613 AUDIO
    TITLE "0:"
    INDEX 01 13:59:22
  TRACK 614 AUDIO
    TITLE "32:cjc160_3765"
    INDEX 01 13:59:63
  TRACK 615 AUDIO
    TITLE "0:"
    INDEX 01 14:01:11
  TRACK 616 AUDIO
    TITLE "33:cjc160_3766"
    INDEX 01 14:01:54
  TRACK 617 AUDIO
    TITLE "0:"
    INDEX 01 14:04:21
  TRACK 618 AUDIO
    TITLE "34:cjc160_3767"
    INDEX 01 14:04:60
  TRACK 619 AUDIO
    TITLE "0:"
    INDEX 01 14:07:31
  TRACK 620 AUDIO
    TITLE "35:cjc160_3768"
    INDEX 01 14:07:55
  TRACK 621 AUDIO
    TITLE "0:"
    INDEX 01 14:10:26
  TRACK 622 AUDIO
    TITLE "31:cjc160_3769"
    INDEX 01 14:11:29
  TRACK 623 AUDIO
    TITLE "0:"
    INDEX 01 14:12:46
  TRACK 624 AUDIO
    TITLE "32:cjc160_3770"
    INDEX 01 14:13:05
  TRACK 625 AUDIO
    TITLE "0:"
    INDEX 01 14:14:26
  TRACK 626 AUDIO
    TITLE "33:cjc160_3771"
    INDEX 01 14:14:69
  TRACK 627 AUDIO
    TITLE "0:"
    INDEX 01 14:17:04
  TRACK 628 AUDIO
    TITLE "34:cjc160_3772"
    INDEX 01 14:17:46
  TRACK 629 AUDIO
    TITLE "0:"
    INDEX 01 14:19:39
  TRACK 630 AUDIO
    TITLE "35:cjc160_3773"
    INDEX 01 14:19:62
  TRACK 631 AUDIO
    TITLE "0:"
    INDEX 01 14:21:57
  TRACK 632 AUDIO
    TITLE "31:cjc160_3774"
    INDEX 01 14:22:55
  TRACK 633 AUDIO
    TITLE "0:"
    INDEX 01 14:24:02
  TRACK 634 AUDIO
    TITLE "32:cjc160_3775"
    INDEX 01 14:24:42
  TRACK 635 AUDIO
    TITLE "0:"
    INDEX 01 14:27:24
  TRACK 636 AUDIO
    TITLE "33:cjc160_3776"
    INDEX 01 14:27:64
  TRACK 637 AUDIO
    TITLE "0:"
    INDEX 01 14:30:17
  TRACK 638 AUDIO
    TITLE "34:cjc160_3777"
    INDEX 01 14:30:62
  TRACK 639 AUDIO
    TITLE "0:"
    INDEX 01 14:33:17
  TRACK 640 AUDIO
    TITLE "35:cjc160_3778"
    INDEX 01 14:33:43
  TRACK 641 AUDIO
    TITLE "0:"
    INDEX 01 14:35:71
  TRACK 642 AUDIO
    TITLE "31:cjc160_3779"
    INDEX 01 14:36:72
  TRACK 643 AUDIO
    TITLE "0:"
    INDEX 01 14:39:14
  TRACK 644 AUDIO
    TITLE "32:cjc160_3780"
    INDEX 01 14:39:53
  TRACK 645 AUDIO
    TITLE "0:"
    INDEX 01 14:43:55
  TRACK 646 AUDIO
    TITLE "33:cjc160_3781"
    INDEX 01 14:44:21
  TRACK 647 AUDIO
    TITLE "0:"
    INDEX 01 14:46:33
  TRACK 648 AUDIO
    TITLE "34:cjc160_3782"
    INDEX 01 14:46:73
  TRACK 649 AUDIO
    TITLE "0:"
    INDEX 01 14:49:36
  TRACK 650 AUDIO
    TITLE "35:cjc160_3783"
    INDEX 01 14:49:59
  TRACK 651 AUDIO
    TITLE "0:"
    INDEX 01 14:52:22
  TRACK 652 AUDIO
    TITLE "31:cjc160_3784"
    INDEX 01 14:53:22
  TRACK 653 AUDIO
    TITLE "0:"
    INDEX 01 14:54:35
  TRACK 654 AUDIO
    TITLE "32:cjc160_3785"
    INDEX 01 14:54:72
  TRACK 655 AUDIO
    TITLE "0:"
    INDEX 01 14:56:04
  TRACK 656 AUDIO
    TITLE "33:cjc160_3786"
    INDEX 01 14:56:46
  TRACK 657 AUDIO
    TITLE "0:"
    INDEX 01 14:59:30
  TRACK 658 AUDIO
    TITLE "34:cjc160_3787"
    INDEX 01 14:59:69
  TRACK 659 AUDIO
    TITLE "0:"
    INDEX 01 15:02:48
  TRACK 660 AUDIO
    TITLE "35:cjc160_3788"
    INDEX 01 15:02:74
  TRACK 661 AUDIO
    TITLE "0:"
    INDEX 01 15:05:50
  TRACK 662 AUDIO
    TITLE "31:cjc160_3789"
    INDEX 01 15:06:50
  TRACK 663 AUDIO
    TITLE "0:"
    INDEX 01 15:07:47
  TRACK 664 AUDIO
    TITLE "32:cjc160_3790"
    INDEX 01 15:08:15
  TRACK 665 AUDIO
    TITLE "0:"
    INDEX 01 15:10:44
  TRACK 666 AUDIO
    TITLE "33:cjc160_3791"
    INDEX 01 15:11:06
  TRACK 667 AUDIO
    TITLE "0:"
    INDEX 01 15:12:74
  TRACK 668 AUDIO
    TITLE "34:cjc160_3792"
    INDEX 01 15:13:38
  TRACK 669 AUDIO
    TITLE "0:"
    INDEX 01 15:15:25
  TRACK 670 AUDIO
    TITLE "35:cjc160_3793"
    INDEX 01 15:15:53
  TRACK 671 AUDIO
    TITLE "0:"
    INDEX 01 15:17:40
  TRACK 672 AUDIO
    TITLE "31:cjc160_3794"
    INDEX 01 15:18:43
  TRACK 673 AUDIO
    TITLE "0:"
    INDEX 01 15:19:72
  TRACK 674 AUDIO
    TITLE "32:cjc160_3795"
    INDEX 01 15:20:34
  TRACK 675 AUDIO
    TITLE "0:"
    INDEX 01 15:22:10
  TRACK 676 AUDIO
    TITLE "33:cjc160_3796"
    INDEX 01 15:22:51
  TRACK 677 AUDIO
    TITLE "0:"
    INDEX 01 15:25:39
  TRACK 678 AUDIO
    TITLE "34:cjc160_3797"
    INDEX 01 15:26:04
  TRACK 679 AUDIO
    TITLE "0:"
    INDEX 01 15:28:38
  TRACK 680 AUDIO
    TITLE "35:cjc160_3798"
    INDEX 01 15:28:63
  TRACK 681 AUDIO
    TITLE "0:"
    INDEX 01 15:31:22
  TRACK 682 AUDIO
    TITLE "31:cjc160_3799"
    INDEX 01 15:32:22
  TRACK 683 AUDIO
    TITLE "0:"
    INDEX 01 15:33:58
  TRACK 684 AUDIO
    TITLE "32:cjc160_3800"
    INDEX 01 15:34:25
  TRACK 685 AUDIO
    TITLE "0:"
    INDEX 01 15:35:51
  TRACK 686 AUDIO
    TITLE "33:cjc160_3801"
    INDEX 01 15:36:16
  TRACK 687 AUDIO
    TITLE "0:"
    INDEX 01 15:38:54
  TRACK 688 AUDIO
    TITLE "34:cjc160_3802"
    INDEX 01 15:39:16
  TRACK 689 AUDIO
    TITLE "0:"
    INDEX 01 15:42:10
  TRACK 690 AUDIO
    TITLE "35:cjc160_3803"
    INDEX 01 15:42:36
  TRACK 691 AUDIO
    TITLE "0:"
    INDEX 01 15:45:30
  TRACK 692 AUDIO
    TITLE "31:cjc160_3804"
    INDEX 01 15:46:30
  TRACK 693 AUDIO
    TITLE "0:"
    INDEX 01 15:47:51
  TRACK 694 AUDIO
    TITLE "32:cjc160_3805"
    INDEX 01 15:48:13
  TRACK 695 AUDIO
    TITLE "0:"
    INDEX 01 15:51:15
  TRACK 696 AUDIO
    TITLE "33:cjc160_3806"
    INDEX 01 15:51:52
  TRACK 697 AUDIO
    TITLE "0:"
    INDEX 01 15:54:12
  TRACK 698 AUDIO
    TITLE "34:cjc160_3807"
    INDEX 01 15:54:51
  TRACK 699 AUDIO
    TITLE "0:"
    INDEX 01 15:57:10
  TRACK 700 AUDIO
    TITLE "35:cjc160_3808"
    INDEX 01 15:57:35
  TRACK 701 AUDIO
    TITLE "0:"
    INDEX 01 15:59:70
  TRACK 702 AUDIO
    TITLE "31:cjc160_3809"
    INDEX 01 16:00:71
  TRACK 703 AUDIO
    TITLE "0:"
    INDEX 01 16:03:32
  TRACK 704 AUDIO
    TITLE "32:cjc160_3810"
    INDEX 01 16:03:65
  TRACK 705 AUDIO
    TITLE "0:"
    INDEX 01 16:06:13
  TRACK 706 AUDIO
    TITLE "33:cjc160_3811"
    INDEX 01 16:06:50
  TRACK 707 AUDIO
    TITLE "0:"
    INDEX 01 16:10:42
  TRACK 708 AUDIO
    TITLE "34:cjc160_3812"
    INDEX 01 16:11:04
  TRACK 709 AUDIO
    TITLE "0:"
    INDEX 01 16:15:06
  TRACK 710 AUDIO
    TITLE "35:cjc160_3813"
    INDEX 01 16:15:29
  TRACK 711 AUDIO
    TITLE "0:"
    INDEX 01 16:19:31
  TRACK 712 AUDIO
    TITLE "31:cjc160_3814"
    INDEX 01 16:20:31
  TRACK 713 AUDIO
    TITLE "0:"
    INDEX 01 16:22:51
  TRACK 714 AUDIO
    TITLE "32:cjc160_3815"
    INDEX 01 16:23:13
  TRACK 715 AUDIO
    TITLE "0:"
    INDEX 01 16:25:20
  TRACK 716 AUDIO
    TITLE "33:cjc160_3816"
    INDEX 01 16:25:57
  TRACK 717 AUDIO
    TITLE "0:"
    INDEX 01 16:27:56
  TRACK 718 AUDIO
    TITLE "34:cjc160_3817"
    INDEX 01 16:28:20
  TRACK 719 AUDIO
    TITLE "0:"
    INDEX 01 16:30:07
  TRACK 720 AUDIO
    TITLE "35:cjc160_3818"
    INDEX 01 16:30:33
  TRACK 721 AUDIO
    TITLE "0:"
    INDEX 01 16:32:20
  TRACK 722 AUDIO
    TITLE "31:cjc160_3819"
    INDEX 01 16:33:21
  TRACK 723 AUDIO
    TITLE "0:"
    INDEX 01 16:34:52
  TRACK 724 AUDIO
    TITLE "32:cjc160_3820"
    INDEX 01 16:35:13
  TRACK 725 AUDIO
    TITLE "0:"
    INDEX 01 16:36:18
  TRACK 726 AUDIO
    TITLE "33:cjc160_3821"
    INDEX 01 16:36:57
  TRACK 727 AUDIO
    TITLE "0:"
    INDEX 01 16:40:04
  TRACK 728 AUDIO
    TITLE "34:cjc160_3822"
    INDEX 01 16:40:39
  TRACK 729 AUDIO
    TITLE "0:"
    INDEX 01 16:43:32
  TRACK 730 AUDIO
    TITLE "35:cjc160_3823"
    INDEX 01 16:43:53
  TRACK 731 AUDIO
    TITLE "0:"
    INDEX 01 16:46:46
  TRACK 732 AUDIO
    TITLE "31:cjc160_3824"
    INDEX 01 16:47:49
  TRACK 733 AUDIO
    TITLE "0:"
    INDEX 01 16:49:13
  TRACK 734 AUDIO
    TITLE "32:cjc160_3825"
    INDEX 01 16:49:52
  TRACK 735 AUDIO
    TITLE "0:"
    INDEX 01 16:51:21
  TRACK 736 AUDIO
    TITLE "33:cjc160_3826"
    INDEX 01 16:51:61
  TRACK 737 AUDIO
    TITLE "0:"
    INDEX 01 16:53:63
  TRACK 738 AUDIO
    TITLE "34:cjc160_3827"
    INDEX 01 16:54:28
  TRACK 739 AUDIO
    TITLE "0:"
    INDEX 01 16:56:36
  TRACK 740 AUDIO
    TITLE "35:cjc160_3828"
    INDEX 01 16:56:60
  TRACK 741 AUDIO
    TITLE "0:"
    INDEX 01 16:58:66
  TRACK 742 AUDIO
    TITLE "31:cjc160_3829"
    INDEX 01 16:59:68
  TRACK 743 AUDIO
    TITLE "0:"
    INDEX 01 17:01:16
  TRACK 744 AUDIO
    TITLE "32:cjc160_3830"
    INDEX 01 17:01:53
  TRACK 745 AUDIO
    TITLE "0:"
    INDEX 01 17:04:40
  TRACK 746 AUDIO
    TITLE "33:cjc160_3831"
    INDEX 01 17:05:04
  TRACK 747 AUDIO
    TITLE "0:"
    INDEX 01 17:08:45
  TRACK 748 AUDIO
    TITLE "34:cjc160_3832"
    INDEX 01 17:09:09
  TRACK 749 AUDIO
    TITLE "0:"
    INDEX 01 17:11:44
  TRACK 750 AUDIO
    TITLE "35:cjc160_3833"
    INDEX 01 17:12:06
  TRACK 751 AUDIO
    TITLE "0:"
    INDEX 01 17:14:38
  TRACK 752 AUDIO
    TITLE "31:cjc160_3834"
    INDEX 01 17:15:49
  TRACK 753 AUDIO
    TITLE "0:"
    INDEX 01 17:16:70
  TRACK 754 AUDIO
    TITLE "32:cjc160_3835"
    INDEX 01 17:17:31
  TRACK 755 AUDIO
    TITLE "0:"
    INDEX 01 17:18:57
  TRACK 756 AUDIO
    TITLE "33:cjc160_3836"
    INDEX 01 17:19:24
  TRACK 757 AUDIO
    TITLE "0:"
    INDEX 01 17:21:50
  TRACK 758 AUDIO
    TITLE "34:cjc160_3837"
    INDEX 01 17:22:14
  TRACK 759 AUDIO
    TITLE "0:"
    INDEX 01 17:24:68
  TRACK 760 AUDIO
    TITLE "35:cjc160_3838"
    INDEX 01 17:25:10
  TRACK 761 AUDIO
    TITLE "0:"
    INDEX 01 17:27:64
  TRACK 762 AUDIO
    TITLE "31:cjc160_3839"
    INDEX 01 17:28:66
  TRACK 763 AUDIO
    TITLE "0:"
    INDEX 01 17:30:19
  TRACK 764 AUDIO
    TITLE "32:cjc160_3840"
    INDEX 01 17:30:55
  TRACK 765 AUDIO
    TITLE "0:"
    INDEX 01 17:32:14
  TRACK 766 AUDIO
    TITLE "33:cjc160_3841"
    INDEX 01 17:32:52
  TRACK 767 AUDIO
    TITLE "0:"
    INDEX 01 17:35:11
  TRACK 768 AUDIO
    TITLE "34:cjc160_3842"
    INDEX 01 17:35:48
  TRACK 769 AUDIO
    TITLE "0:"
    INDEX 01 17:37:37
  TRACK 770 AUDIO
    TITLE "35:cjc160_3843"
    INDEX 01 17:37:57
  TRACK 771 AUDIO
    TITLE "0:"
    INDEX 01 17:39:46
  TRACK 772 AUDIO
    TITLE "31:cjc160_3844"
    INDEX 01 17:40:43
  TRACK 773 AUDIO
    TITLE "0:"
    INDEX 01 17:41:53
  TRACK 774 AUDIO
    TITLE "32:cjc160_3845"
    INDEX 01 17:42:15
  TRACK 775 AUDIO
    TITLE "0:"
    INDEX 01 17:43:48
  TRACK 776 AUDIO
    TITLE "33:cjc160_3846"
    INDEX 01 17:44:10
  TRACK 777 AUDIO
    TITLE "0:"
    INDEX 01 17:45:70
  TRACK 778 AUDIO
    TITLE "34:cjc160_3847"
    INDEX 01 17:46:32
  TRACK 779 AUDIO
    TITLE "0:"
    INDEX 01 17:48:13
  TRACK 780 AUDIO
    TITLE "35:cjc160_3848"
    INDEX 01 17:48:41
  TRACK 781 AUDIO
    TITLE "0:"
    INDEX 01 17:50:12
  TRACK 782 AUDIO
    TITLE "31:cjc160_3849"
    INDEX 01 17:51:24
  TRACK 783 AUDIO
    TITLE "0:"
    INDEX 01 17:53:26
  TRACK 784 AUDIO
    TITLE "32:cjc160_3850"
    INDEX 01 17:53:62
  TRACK 785 AUDIO
    TITLE "0:"
    INDEX 01 17:55:72
  TRACK 786 AUDIO
    TITLE "33:cjc160_3851"
    INDEX 01 17:56:33
  TRACK 787 AUDIO
    TITLE "0:"
    INDEX 01 18:00:07
  TRACK 788 AUDIO
    TITLE "34:cjc160_3852"
    INDEX 01 18:00:52
  TRACK 789 AUDIO
    TITLE "0:"
    INDEX 01 18:03:72
  TRACK 790 AUDIO
    TITLE "35:cjc160_3853"
    INDEX 01 18:04:32
  TRACK 791 AUDIO
    TITLE "0:"
    INDEX 01 18:07:48
  TRACK 792 AUDIO
    TITLE "31:cjc160_3854"
    INDEX 01 18:08:51
  TRACK 793 AUDIO
    TITLE "0:"
    INDEX 01 18:10:39
  TRACK 794 AUDIO
    TITLE "32:cjc160_3855"
    INDEX 01 18:11:03
  TRACK 795 AUDIO
    TITLE "0:"
    INDEX 01 18:13:19
  TRACK 796 AUDIO
    TITLE "33:cjc160_3856"
    INDEX 01 18:13:58
  TRACK 797 AUDIO
    TITLE "0:"
    INDEX 01 18:17:64
  TRACK 798 AUDIO
    TITLE "34:cjc160_3857"
    INDEX 01 18:18:26
  TRACK 799 AUDIO
    TITLE "0:"
    INDEX 01 18:21:50
  TRACK 800 AUDIO
    TITLE "35:cjc160_3858"
    INDEX 01 18:22:03
  TRACK 801 AUDIO
    TITLE "0:"
    INDEX 01 18:25:22
  TRACK 802 AUDIO
    TITLE "31:cjc160_3859"
    INDEX 01 18:26:22
  TRACK 803 AUDIO
    TITLE "0:"
    INDEX 01 18:27:63
  TRACK 804 AUDIO
    TITLE "32:cjc160_3860"
    INDEX 01 18:28:27
  TRACK 805 AUDIO
    TITLE "0:"
    INDEX 01 18:31:27
  TRACK 806 AUDIO
    TITLE "33:cjc160_3861"
    INDEX 01 18:31:72
  TRACK 807 AUDIO
    TITLE "0:"
    INDEX 01 18:33:63
  TRACK 808 AUDIO
    TITLE "34:cjc160_3862"
    INDEX 01 18:34:27
  TRACK 809 AUDIO
    TITLE "0:"
    INDEX 01 18:36:30
  TRACK 810 AUDIO
    TITLE "35:cjc160_3863"
    INDEX 01 18:36:56
  TRACK 811 AUDIO
    TITLE "0:"
    INDEX 01 18:38:56
  TRACK 812 AUDIO
    TITLE "31:cjc160_3864"
    INDEX 01 18:39:58
  TRACK 813 AUDIO
    TITLE "0:"
    INDEX 01 18:40:73
  TRACK 814 AUDIO
    TITLE "32:cjc160_3865"
    INDEX 01 18:41:37
  TRACK 815 AUDIO
    TITLE "0:"
    INDEX 01 18:45:11
  TRACK 816 AUDIO
    TITLE "33:cjc160_3866"
    INDEX 01 18:45:51
  TRACK 817 AUDIO
    TITLE "0:"
    INDEX 01 18:48:22
  TRACK 818 AUDIO
    TITLE "34:cjc160_3867"
    INDEX 01 18:48:65
  TRACK 819 AUDIO
    TITLE "0:"
    INDEX 01 18:51:00
  TRACK 820 AUDIO
    TITLE "35:cjc160_3868"
    INDEX 01 18:51:26
  TRACK 821 AUDIO
    TITLE "0:"
    INDEX 01 18:53:34
  TRACK 822 AUDIO
    TITLE "31:cjc160_3869"
    INDEX 01 18:54:36
  TRACK 823 AUDIO
    TITLE "0:"
    INDEX 01 18:56:01
  TRACK 824 AUDIO
    TITLE "32:cjc160_3870"
    INDEX 01 18:56:49
  TRACK 825 AUDIO
    TITLE "0:"
    INDEX 01 18:58:26
  TRACK 826 AUDIO
    TITLE "33:cjc160_3871"
    INDEX 01 18:58:69
  TRACK 827 AUDIO
    TITLE "0:"
    INDEX 01 19:02:33
  TRACK 828 AUDIO
    TITLE "34:cjc160_3872"
    INDEX 01 19:02:73
  TRACK 829 AUDIO
    TITLE "0:"
    INDEX 01 19:06:02
  TRACK 830 AUDIO
    TITLE "35:cjc160_3873"
    INDEX 01 19:06:27
  TRACK 831 AUDIO
    TITLE "0:"
    INDEX 01 19:09:32
  TRACK 832 AUDIO
    TITLE "31:cjc160_3874"
    INDEX 01 19:10:33
  TRACK 833 AUDIO
    TITLE "0:"
    INDEX 01 19:12:16
  TRACK 834 AUDIO
    TITLE "32:cjc160_3875"
    INDEX 01 19:12:59
  TRACK 835 AUDIO
    TITLE "0:"
    INDEX 01 19:14:25
  TRACK 836 AUDIO
    TITLE "33:cjc160_3876"
    INDEX 01 19:14:62
  TRACK 837 AUDIO
    TITLE "0:"
    INDEX 01 19:17:43
  TRACK 838 AUDIO
    TITLE "34:cjc160_3877"
    INDEX 01 19:18:05
  TRACK 839 AUDIO
    TITLE "0:"
    INDEX 01 19:20:67
  TRACK 840 AUDIO
    TITLE "35:cjc160_3878"
    INDEX 01 19:21:15
  TRACK 841 AUDIO
    TITLE "0:"
    INDEX 01 19:24:00
  TRACK 842 AUDIO
    TITLE "31:cjc160_3879"
    INDEX 01 19:24:74
  TRACK 843 AUDIO
    TITLE "0:"
    INDEX 01 19:26:44
  TRACK 844 AUDIO
    TITLE "32:cjc160_3880"
    INDEX 01 19:27:06
  TRACK 845 AUDIO
    TITLE "0:"
    INDEX 01 19:29:40
  TRACK 846 AUDIO
    TITLE "33:cjc160_3881"
    INDEX 01 19:30:12
  TRACK 847 AUDIO
    TITLE "0:"
    INDEX 01 19:33:16
  TRACK 848 AUDIO
    TITLE "34:cjc160_3882"
    INDEX 01 19:33:57
  TRACK 849 AUDIO
    TITLE "0:"
    INDEX 01 19:37:18
  TRACK 850 AUDIO
    TITLE "35:cjc160_3883"
    INDEX 01 19:37:42
  TRACK 851 AUDIO
    TITLE "0:"
    INDEX 01 19:41:06
  TRACK 852 AUDIO
    TITLE "31:cjc160_3884"
    INDEX 01 19:42:06
  TRACK 853 AUDIO
    TITLE "0:"
    INDEX 01 19:43:28
  TRACK 854 AUDIO
    TITLE "32:cjc160_3885"
    INDEX 01 19:43:72
  TRACK 855 AUDIO
    TITLE "0:"
    INDEX 01 19:44:59
  TRACK 856 AUDIO
    TITLE "33:cjc160_3886"
    INDEX 01 19:45:23
  TRACK 857 AUDIO
    TITLE "0:"
    INDEX 01 19:48:43
  TRACK 858 AUDIO
    TITLE "34:cjc160_3887"
    INDEX 01 19:49:08
  TRACK 859 AUDIO
    TITLE "0:"
    INDEX 01 19:52:16
  TRACK 860 AUDIO
    TITLE "35:cjc160_3888"
    INDEX 01 19:52:39
  TRACK 861 AUDIO
    TITLE "0:"
    INDEX 01 19:55:49
  TRACK 862 AUDIO
    TITLE "31:cjc160_3889"
    INDEX 01 19:56:49
  TRACK 863 AUDIO
    TITLE "0:"
    INDEX 01 19:58:10
  TRACK 864 AUDIO
    TITLE "32:cjc160_3890"
    INDEX 01 19:58:52
  TRACK 865 AUDIO
    TITLE "0:"
    INDEX 01 19:59:63
  TRACK 866 AUDIO
    TITLE "33:cjc160_3891"
    INDEX 01 20:00:27
  TRACK 867 AUDIO
    TITLE "0:"
    INDEX 01 20:02:36
  TRACK 868 AUDIO
    TITLE "34:cjc160_3892"
    INDEX 01 20:02:73
  TRACK 869 AUDIO
    TITLE "0:"
    INDEX 01 20:05:16
  TRACK 870 AUDIO
    TITLE "35:cjc160_3893"
    INDEX 01 20:05:40
  TRACK 871 AUDIO
    TITLE "0:"
    INDEX 01 20:07:58
  TRACK 872 AUDIO
    TITLE "31:cjc160_3894"
    INDEX 01 20:08:60
  TRACK 873 AUDIO
    TITLE "0:"
    INDEX 01 20:10:12
  TRACK 874 AUDIO
    TITLE "32:cjc160_3895"
    INDEX 01 20:10:51
  TRACK 875 AUDIO
    TITLE "0:"
    INDEX 01 20:12:16
  TRACK 876 AUDIO
    TITLE "33:cjc160_3896"
    INDEX 01 20:12:63
  TRACK 877 AUDIO
    TITLE "0:"
    INDEX 01 20:15:72
  TRACK 878 AUDIO
    TITLE "34:cjc160_3897"
    INDEX 01 20:16:36
  TRACK 879 AUDIO
    TITLE "0:"
    INDEX 01 20:19:15
  TRACK 880 AUDIO
    TITLE "35:cjc160_3898"
    INDEX 01 20:19:40
  TRACK 881 AUDIO
    TITLE "0:"
    INDEX 01 20:22:21
  TRACK 882 AUDIO
    TITLE "31:cjc160_3899"
    INDEX 01 20:23:20
  TRACK 883 AUDIO
    TITLE "0:"
    INDEX 01 20:24:37
  TRACK 884 AUDIO
    TITLE "32:cjc160_3900"
    INDEX 01 20:24:74
  TRACK 885 AUDIO
    TITLE "0:"
    INDEX 01 20:28:43
  TRACK 886 AUDIO
    TITLE "33:cjc160_3901"
    INDEX 01 20:29:05
  TRACK 887 AUDIO
    TITLE "0:"
    INDEX 01 20:30:69
  TRACK 888 AUDIO
    TITLE "34:cjc160_3902"
    INDEX 01 20:31:33
  TRACK 889 AUDIO
    TITLE "0:"
    INDEX 01 20:33:26
  TRACK 890 AUDIO
    TITLE "35:cjc160_3903"
    INDEX 01 20:33:52
  TRACK 891 AUDIO
    TITLE "0:"
    INDEX 01 20:35:47
  TRACK 892 AUDIO
    TITLE "31:cjc160_3904"
    INDEX 01 20:36:48
  TRACK 893 AUDIO
    TITLE "0:"
    INDEX 01 20:37:61
  TRACK 894 AUDIO
    TITLE "32:cjc160_3905"
    INDEX 01 20:38:26
  TRACK 895 AUDIO
    TITLE "0:"
    INDEX 01 20:40:60
  TRACK 896 AUDIO
    TITLE "33:cjc160_3906"
    INDEX 01 20:41:26
  TRACK 897 AUDIO
    TITLE "0:"
    INDEX 01 20:44:22
  TRACK 898 AUDIO
    TITLE "34:cjc160_3907"
    INDEX 01 20:44:60
  TRACK 899 AUDIO
    TITLE "0:"
    INDEX 01 20:47:28
  TRACK 900 AUDIO
    TITLE "35:cjc160_3908"
    INDEX 01 20:47:56
  TRACK 901 AUDIO
    TITLE "0:"
    INDEX 01 20:50:25
  TRACK 902 AUDIO
    TITLE "31:cjc160_3909"
    INDEX 01 20:51:24
  TRACK 903 AUDIO
    TITLE "0:"
    INDEX 01 20:52:59
  TRACK 904 AUDIO
    TITLE "32:cjc160_3910"
    INDEX 01 20:53:27
  TRACK 905 AUDIO
    TITLE "0:"
    INDEX 01 20:54:70
  TRACK 906 AUDIO
    TITLE "33:cjc160_3911"
    INDEX 01 20:55:32
  TRACK 907 AUDIO
    TITLE "0:"
    INDEX 01 20:58:71
  TRACK 908 AUDIO
    TITLE "34:cjc160_3912"
    INDEX 01 20:59:36
  TRACK 909 AUDIO
    TITLE "0:"
    INDEX 01 21:02:28
  TRACK 910 AUDIO
    TITLE "35:cjc160_3913"
    INDEX 01 21:02:55
  TRACK 911 AUDIO
    TITLE "0:"
    INDEX 01 21:05:48
  TRACK 912 AUDIO
    TITLE "31:cjc160_3914"
    INDEX 01 21:06:51
  TRACK 913 AUDIO
    TITLE "0:"
    INDEX 01 21:08:03
  TRACK 914 AUDIO
    TITLE "32:cjc160_3915"
    INDEX 01 21:08:42
  TRACK 915 AUDIO
    TITLE "0:"
    INDEX 01 21:10:10
  TRACK 916 AUDIO
    TITLE "33:cjc160_3916"
    INDEX 01 21:10:47
  TRACK 917 AUDIO
    TITLE "0:"
    INDEX 01 21:14:31
  TRACK 918 AUDIO
    TITLE "34:cjc160_3917"
    INDEX 01 21:14:70
  TRACK 919 AUDIO
    TITLE "0:"
    INDEX 01 21:18:39
  TRACK 920 AUDIO
    TITLE "35:cjc160_3918"
    INDEX 01 21:18:62
  TRACK 921 AUDIO
    TITLE "0:"
    INDEX 01 21:22:31
  TRACK 922 AUDIO
    TITLE "31:cjc160_3919"
    INDEX 01 21:23:30
  TRACK 923 AUDIO
    TITLE "0:"
    INDEX 01 21:24:65
  TRACK 924 AUDIO
    TITLE "32:cjc160_3920"
    INDEX 01 21:25:27
  TRACK 925 AUDIO
    TITLE "0:"
    INDEX 01 21:28:12
  TRACK 926 AUDIO
    TITLE "33:cjc160_3921"
    INDEX 01 21:28:65
  TRACK 927 AUDIO
    TITLE "0:"
    INDEX 01 21:32:62
  TRACK 928 AUDIO
    TITLE "34:cjc160_3922"
    INDEX 01 21:33:29
  TRACK 929 AUDIO
    TITLE "0:"
    INDEX 01 21:37:22
  TRACK 930 AUDIO
    TITLE "35:cjc160_3923"
    INDEX 01 21:37:50
  TRACK 931 AUDIO
    TITLE "0:"
    INDEX 01 21:41:44
  TRACK 932 AUDIO
    TITLE "31:cjc160_3924"
    INDEX 01 21:42:47
  TRACK 933 AUDIO
    TITLE "0:"
    INDEX 01 21:44:24
  TRACK 934 AUDIO
    TITLE "32:cjc160_3925"
    INDEX 01 21:44:64
  TRACK 935 AUDIO
    TITLE "0:"
    INDEX 01 21:47:42
  TRACK 936 AUDIO
    TITLE "33:cjc160_3926"
    INDEX 01 21:48:07
  TRACK 937 AUDIO
    TITLE "0:"
    INDEX 01 21:50:68
  TRACK 938 AUDIO
    TITLE "34:cjc160_3927"
    INDEX 01 21:51:30
  TRACK 939 AUDIO
    TITLE "0:"
    INDEX 01 21:53:63
  TRACK 940 AUDIO
    TITLE "35:cjc160_3928"
    INDEX 01 21:54:13
  TRACK 941 AUDIO
    TITLE "0:"
    INDEX 01 21:56:45
  TRACK 942 AUDIO
    TITLE "31:cjc160_3929"
    INDEX 01 21:57:45
  TRACK 943 AUDIO
    TITLE "0:"
    INDEX 01 21:58:62
  TRACK 944 AUDIO
    TITLE "32:cjc160_3930"
    INDEX 01 21:59:32
  TRACK 945 AUDIO
    TITLE "0:"
    INDEX 01 22:01:35
  TRACK 946 AUDIO
    TITLE "33:cjc160_3931"
    INDEX 01 22:01:68
  TRACK 947 AUDIO
    TITLE "0:"
    INDEX 01 22:04:41
  TRACK 948 AUDIO
    TITLE "34:cjc160_3932"
    INDEX 01 22:05:05
  TRACK 949 AUDIO
    TITLE "0:"
    INDEX 01 22:07:35
  TRACK 950 AUDIO
    TITLE "35:cjc160_3933"
    INDEX 01 22:07:63
  TRACK 951 AUDIO
    TITLE "0:"
    INDEX 01 22:10:18
  TRACK 952 AUDIO
    TITLE "31:cjc160_3934"
    INDEX 01 22:11:19
  TRACK 953 AUDIO
    TITLE "0:"
    INDEX 01 22:12:72
  TRACK 954 AUDIO
    TITLE "32:cjc160_3935"
    INDEX 01 22:13:34
  TRACK 955 AUDIO
    TITLE "0:"
    INDEX 01 22:15:11
  TRACK 956 AUDIO
    TITLE "33:cjc160_3936"
    INDEX 01 22:15:52
  TRACK 957 AUDIO
    TITLE "0:"
    INDEX 01 22:17:73
  TRACK 958 AUDIO
    TITLE "34:cjc160_3937"
    INDEX 01 22:18:37
  TRACK 959 AUDIO
    TITLE "0:"
    INDEX 01 22:21:37
  TRACK 960 AUDIO
    TITLE "35:cjc160_3938"
    INDEX 01 22:21:63
  TRACK 961 AUDIO
    TITLE "0:"
    INDEX 01 22:24:61
  TRACK 962 AUDIO
    TITLE "31:cjc160_3939"
    INDEX 01 22:25:63
  TRACK 963 AUDIO
    TITLE "0:"
    INDEX 01 22:27:07
  TRACK 964 AUDIO
    TITLE "32:cjc160_3940"
    INDEX 01 22:27:46
  TRACK 965 AUDIO
    TITLE "0:"
    INDEX 01 22:29:64
  TRACK 966 AUDIO
    TITLE "33:cjc160_3941"
    INDEX 01 22:30:31
  TRACK 967 AUDIO
    TITLE "0:"
    INDEX 01 22:32:18
  TRACK 968 AUDIO
    TITLE "34:cjc160_3942"
    INDEX 01 22:32:55
  TRACK 969 AUDIO
    TITLE "0:"
    INDEX 01 22:34:30
  TRACK 970 AUDIO
    TITLE "35:cjc160_3943"
    INDEX 01 22:34:54
  TRACK 971 AUDIO
    TITLE "0:"
    INDEX 01 22:36:29
  TRACK 972 AUDIO
    TITLE "31:cjc160_3944"
    INDEX 01 22:37:33
  TRACK 973 AUDIO
    TITLE "0:"
    INDEX 01 22:38:71
  TRACK 974 AUDIO
    TITLE "32:cjc160_3945"
    INDEX 01 22:39:35
  TRACK 975 AUDIO
    TITLE "0:"
    INDEX 01 22:42:42
  TRACK 976 AUDIO
    TITLE "33:cjc160_3946"
    INDEX 01 22:43:06
  TRACK 977 AUDIO
    TITLE "0:"
    INDEX 01 22:45:73
  TRACK 978 AUDIO
    TITLE "34:cjc160_3947"
    INDEX 01 22:46:35
  TRACK 979 AUDIO
    TITLE "0:"
    INDEX 01 22:48:66
  TRACK 980 AUDIO
    TITLE "35:cjc160_3948"
    INDEX 01 22:49:18
  TRACK 981 AUDIO
    TITLE "0:"
    INDEX 01 22:51:48
  TRACK 982 AUDIO
    TITLE "31:cjc160_3949"
    INDEX 01 22:52:50
  TRACK 983 AUDIO
    TITLE "0:"
    INDEX 01 22:54:00
  TRACK 984 AUDIO
    TITLE "32:cjc160_3950"
    INDEX 01 22:54:37
  TRACK 985 AUDIO
    TITLE "0:"
    INDEX 01 22:57:02
  TRACK 986 AUDIO
    TITLE "33:cjc160_3951"
    INDEX 01 22:57:39
  TRACK 987 AUDIO
    TITLE "0:"
    INDEX 01 22:59:62
  TRACK 988 AUDIO
    TITLE "34:cjc160_3952"
    INDEX 01 23:00:26
  TRACK 989 AUDIO
    TITLE "0:"
    INDEX 01 23:02:48
  TRACK 990 AUDIO
    TITLE "35:cjc160_3953"
    INDEX 01 23:03:01
  TRACK 991 AUDIO
    TITLE "0:"
    INDEX 01 23:05:25
  TRACK 992 AUDIO
    TITLE "31:cjc160_3954"
    INDEX 01 23:06:26
  TRACK 993 AUDIO
    TITLE "0:"
    INDEX 01 23:07:73
  TRACK 994 AUDIO
    TITLE "32:cjc160_3955"
    INDEX 01 23:08:39
  TRACK 995 AUDIO
    TITLE "0:"
    INDEX 01 23:10:32
  TRACK 996 AUDIO
    TITLE "33:cjc160_3956"
    INDEX 01 23:10:69
  TRACK 997 AUDIO
    TITLE "0:"
    INDEX 01 23:14:08
  TRACK 998 AUDIO
    TITLE "34:cjc160_3957"
    INDEX 01 23:14:49
  TRACK 999 AUDIO
    TITLE "0:"
    INDEX 01 23:17:52
  TRACK 1000 AUDIO
    TITLE "35:cjc160_3958"
    INDEX 01 23:18:02
  TRACK 1001 AUDIO
    TITLE "0:"
    INDEX 01 23:21:04
